<svg width="173" height="40" viewBox="0 0 173 40" fill="none" xmlns="http://www.w3.org/2000/svg">
<g clip-path="url(#clip0_1_3037)">
<path d="M60.6677 29.1874C60.6677 29.939 61.2829 30.6223 62.103 30.6223C62.9231 30.6223 63.5382 30.0074 63.5382 29.1874C63.5382 28.3675 62.9231 27.7526 62.103 27.7526C61.2829 27.7526 60.6677 28.4358 60.6677 29.1874ZM58.2757 25.771L59.4375 26.7959C62.1713 24.2678 64.905 26.7959 64.905 26.7959C64.905 26.7959 65.8618 25.771 65.9302 25.771C65.8618 25.6343 64.6317 24.1311 62.103 24.1311C59.5742 24.1311 58.2757 25.771 58.2757 25.771ZM59.6426 13.4035H64.495V10.8754H59.6426V13.4035ZM59.6426 10.602H64.495V10.3287H62.308V6.16064H61.8979V10.3287H59.6426V10.602ZM68.7323 23.0378C68.7323 23.0378 66.682 20.5097 62.718 20.3047V17.7766H63.2648V13.7451H60.8044V17.7766H61.3512V20.3047C57.4556 20.578 55.3369 23.0378 55.3369 23.0378L56.5671 24.1311C62.103 18.8698 67.6388 24.1311 67.6388 24.1311L68.7323 23.0378Z" fill="black"/>
<path d="M155.802 17.4349V24.4728C155.802 24.5411 155.87 24.6094 155.939 24.6094H157.579C157.647 24.6094 157.716 24.5411 157.716 24.4728V17.4349H155.802ZM150.54 24.8827L154.572 14.4284C154.64 14.3602 154.572 14.2918 154.435 14.2918H152.659C152.59 14.2918 152.522 14.2918 152.522 14.3602L150.472 19.9631L148.353 14.3602C148.353 14.2918 148.284 14.2918 148.216 14.2918H146.439C146.371 14.2918 146.302 14.2918 146.302 14.3602L144.184 19.9631L142.134 14.3602C142.134 14.2918 142.065 14.2918 141.997 14.2918H140.22C140.152 14.2918 140.015 14.3602 140.083 14.4284L144.115 24.8827C144.115 25.0194 144.32 25.0194 144.389 24.8827L147.396 16.9566L150.403 24.8827C150.335 25.0194 150.54 25.0194 150.54 24.8827ZM157.716 16.0684V14.4284C157.716 14.3602 157.647 14.2918 157.579 14.2918H155.939C155.87 14.2918 155.802 14.3602 155.802 14.4284V16.0684H157.716ZM166.874 16.0684V14.3602C166.874 14.2918 166.805 14.2234 166.737 14.2234H160.04C159.971 14.2234 159.903 14.2918 159.903 14.3602V24.4044C159.903 24.4728 159.971 24.5411 160.04 24.5411H161.748C161.817 24.5411 161.885 24.4728 161.885 24.4044V20.3047H165.917C165.985 20.3047 166.054 20.2364 166.054 20.1681V18.5282C166.054 18.4599 165.985 18.3915 165.917 18.3915H161.885V16.0684H166.737C166.874 16.205 166.874 16.1366 166.874 16.0684ZM168.446 16.0684H170.428V14.4284C170.428 14.3602 170.359 14.2918 170.291 14.2918H168.582C168.514 14.2918 168.446 14.3602 168.446 14.4284V16.0684ZM170.428 24.4728V17.4349H168.446V24.4728C168.446 24.5411 168.514 24.6094 168.582 24.6094H170.223C170.359 24.6094 170.428 24.5411 170.428 24.4728Z" fill="black"/>
<path d="M99.8288 24.6778C99.8288 24.746 99.8969 24.8144 99.9657 24.8144H101.606C101.674 24.8144 101.743 24.746 101.743 24.6778V14.6334C101.743 14.5651 101.674 14.4968 101.606 14.4968H99.9657C99.8969 14.4968 99.8288 14.5651 99.8288 14.6334V24.6778ZM98.3251 24.8144C98.3939 24.8144 98.462 24.746 98.462 24.6778V23.0378C98.462 22.9696 98.3939 22.9012 98.3251 22.9012H93.4044L98.3939 14.7018C98.462 14.6334 98.3939 14.4968 98.257 14.4968H90.6707C90.6026 14.4968 90.5338 14.5651 90.5338 14.6334V16.2733C90.5338 16.3416 90.6026 16.41 90.6707 16.41H95.1132L90.1238 24.6094C90.0557 24.6778 90.1238 24.8144 90.2607 24.8144H98.3251ZM84.2463 23.0378C82.1964 23.0378 81.1707 21.3296 81.1707 19.6214C81.1707 17.9132 82.1964 16.205 84.2463 16.205C86.297 16.205 87.322 17.9132 87.322 19.6214C87.322 21.3296 86.297 23.0378 84.2463 23.0378ZM84.2463 14.3601C80.8295 14.3601 79.1207 17.0249 79.1207 19.6214C79.1207 22.2863 80.8295 24.951 84.2463 24.951C87.5951 24.951 89.3038 22.2863 89.3038 19.6214C89.3038 17.0249 87.5951 14.3601 84.2463 14.3601ZM73.7213 14.4968C73.6532 14.4968 73.5851 14.5651 73.5851 14.6334V16.1366C73.5851 16.205 73.6532 16.2733 73.7213 16.2733H75.4301V21.8079C75.4301 21.8079 75.4301 22.9696 74.2682 22.9696H72.9694C72.9014 22.9696 72.8333 23.0378 72.8333 23.1062V24.8144C72.8333 24.8827 72.9014 24.951 72.9694 24.951H74.2682C74.2682 24.951 77.3439 24.951 77.3439 21.8763V14.5651C77.3439 14.4968 77.2758 14.4284 77.207 14.4284H73.7213V14.4968Z" fill="black"/>
<path d="M134.069 17.0932C134.137 17.0932 134.205 17.0249 134.205 17.0249V15.7267C134.205 15.6583 134.137 15.6583 134.069 15.6583H128.806C128.738 15.6583 128.67 15.7267 128.67 15.7267V23.5844C128.67 23.6528 128.738 23.6528 128.806 23.6528H134.069C134.137 23.6528 134.205 23.5844 134.205 23.5844V22.2862C134.205 22.2179 134.137 22.2179 134.069 22.2179H130.242V20.373H133.385C133.454 20.373 133.522 20.3047 133.522 20.3047V19.0747C133.522 19.0065 133.454 19.0065 133.385 19.0065H130.242V17.1616L134.069 17.0932ZM127.234 17.0932C127.303 17.0932 127.371 17.0249 127.371 17.0249V15.7267C127.371 15.6583 127.303 15.6583 127.234 15.6583H121.972C121.904 15.6583 121.835 15.7267 121.835 15.7267V23.5844C121.835 23.6528 121.904 23.6528 121.972 23.6528H127.234C127.303 23.6528 127.371 23.5844 127.371 23.5844V22.2862C127.371 22.2179 127.303 22.2179 127.234 22.2179H123.407V20.373H126.551C126.619 20.373 126.688 20.3047 126.688 20.3047V19.0747C126.688 19.0065 126.619 19.0065 126.551 19.0065H123.407V17.1616L127.234 17.0932ZM116.436 17.0932H117.598C117.871 17.0932 118.828 17.1616 118.828 18.0498C118.828 18.9381 117.94 19.0065 117.598 19.0065H116.436V17.0932ZM118.76 23.6528C118.76 23.6528 118.828 23.7211 118.897 23.7211H120.332C120.4 23.7211 120.469 23.6528 120.4 23.5844C119.922 22.4229 119.375 21.3296 118.828 20.2364C119.649 19.963 120.332 19.2797 120.332 18.0498C120.332 15.6583 118.077 15.6583 117.598 15.6583H115.001C114.932 15.6583 114.864 15.7267 114.864 15.7267V23.5844C114.864 23.6528 114.932 23.6528 115.001 23.6528H116.299C116.368 23.6528 116.436 23.5844 116.436 23.5844V20.4413H117.325L118.76 23.6528ZM113.565 17.1616C113.634 17.1616 113.702 17.0932 113.702 17.0932V15.795C113.702 15.7267 113.634 15.7267 113.565 15.7267H108.303C108.235 15.7267 108.167 15.795 108.167 15.795V23.5844C108.167 23.6528 108.235 23.6528 108.303 23.6528H109.602C109.67 23.6528 109.739 23.5844 109.739 23.5844V20.4413H112.882C112.95 20.4413 113.019 20.373 113.019 20.373V19.0747C113.019 19.0065 112.95 19.0065 112.882 19.0065H109.739V17.2299L113.565 17.1616Z" fill="#FFB600"/>
<path fill-rule="evenodd" clip-rule="evenodd" d="M106.526 13.4035C105.775 13.4035 105.159 14.0185 105.159 14.77V24.541C105.159 25.2927 105.775 25.9076 106.526 25.9076H135.778C136.529 25.9076 137.144 25.2927 137.144 24.541V14.77C137.144 14.0185 136.529 13.4035 135.778 13.4035H106.526ZM106.937 14.4284C106.526 14.4284 106.185 14.77 106.185 15.1801V24.0627C106.185 24.4728 106.526 24.8144 106.937 24.8144H135.299C135.709 24.8144 136.051 24.4728 136.051 24.0627V15.1801C136.051 14.77 135.709 14.4284 135.299 14.4284H106.937Z" fill="#FFB600"/>
<path fill-rule="evenodd" clip-rule="evenodd" d="M1.24878 38.4161C1.24878 38.1621 1.5351 38.13 1.72837 38.13H1.91448C1.91448 38.2587 1.89539 38.378 1.825 38.471C1.757 38.5616 1.6544 38.6189 1.52317 38.6189C1.36808 38.6189 1.24878 38.558 1.24878 38.4161ZM1.03046 37.6959C1.17481 37.5861 1.35853 37.5158 1.54226 37.5158C1.79637 37.5158 1.91567 37.6064 1.91567 37.8736H1.67707C1.49692 37.8736 1.28457 37.8891 1.12112 37.9701C0.957683 38.05 0.838379 38.1955 0.838379 38.4424C0.838379 38.7572 1.1247 38.9337 1.41699 38.9337C1.61264 38.9337 1.82858 38.8312 1.92879 38.6475H1.93476C1.93834 38.6987 1.93834 38.8085 1.95385 38.8955H2.33323C2.32368 38.7667 2.31772 38.6511 2.31414 38.5258C2.31056 38.403 2.30817 38.279 2.30817 38.1109V37.8986C2.30817 37.4096 2.0994 37.201 1.59475 37.201C1.41103 37.201 1.18674 37.2486 1.01972 37.3262L1.03046 37.6959Z" fill="black"/>
<path d="M4.25508 38.8956H4.7466L5.10094 37.6351H5.1069L5.46719 38.8956H5.97541L6.48363 37.2404H6.07205L5.72727 38.4651H5.7213L5.36101 37.2404H4.85875L4.52471 38.4651H4.51874L4.15129 37.2404H3.69556L4.25508 38.8956Z" fill="black"/>
<path fill-rule="evenodd" clip-rule="evenodd" d="M7.22344 38.0274C7.22344 37.7793 7.35826 37.5361 7.63858 37.5361C7.92136 37.5361 8.05616 37.7733 8.05616 38.0274C8.05616 38.3041 7.9691 38.5998 7.63858 38.5998C7.31054 38.5998 7.22344 38.3005 7.22344 38.0274ZM6.77368 38.0787C6.77368 38.5545 7.09222 38.9337 7.63858 38.9337C8.18863 38.9337 8.50715 38.5545 8.50715 38.0787C8.50715 37.5325 8.13134 37.201 7.63858 37.201C7.14948 37.201 6.77368 37.5325 6.77368 38.0787Z" fill="black"/>
<path d="M8.9939 38.8955H9.42453V38.2886C9.42453 38.0512 9.42453 37.6136 9.77527 37.6136C9.85284 37.6136 9.92916 37.6267 9.96854 37.6481V37.2141C9.92319 37.201 9.8791 37.201 9.83613 37.201C9.57842 37.201 9.40185 37.4609 9.38276 37.6159H9.37679V37.2403H8.9939V38.8955Z" fill="black"/>
<path d="M10.8142 36.4842H10.3835V38.8955H10.8142V36.4842Z" fill="black"/>
<path fill-rule="evenodd" clip-rule="evenodd" d="M12.51 38.8955H12.9276V36.4842H12.4969V37.4323H12.4909C12.3621 37.2749 12.2106 37.2009 11.9958 37.2009C11.4876 37.2009 11.3015 37.6064 11.3015 38.0619C11.3015 38.5151 11.4876 38.9325 11.9958 38.9325C12.1987 38.9325 12.3752 38.8681 12.504 38.7071H12.51V38.8955ZM11.7512 38.0631C11.7512 37.8413 11.8288 37.536 12.1079 37.536C12.3848 37.536 12.4945 37.8318 12.4945 38.0631C12.4945 38.298 12.4015 38.5997 12.1151 38.5997C11.8312 38.5997 11.7512 38.2909 11.7512 38.0631Z" fill="black"/>
<path d="M15.6338 37.2558C15.5145 37.22 15.3893 37.201 15.2163 37.201C14.6986 37.201 14.4158 37.5801 14.4158 38.0596C14.4158 38.564 14.689 38.9337 15.233 38.9337C15.4096 38.9337 15.5384 38.917 15.6636 38.8788L15.6446 38.5223C15.5706 38.5545 15.4358 38.5998 15.3129 38.5998C15.0111 38.5998 14.8668 38.3649 14.8668 38.0596C14.8668 37.7484 15.0374 37.5361 15.3034 37.5361C15.4346 37.5361 15.5193 37.5623 15.5957 37.5968L15.6338 37.2558Z" fill="black"/>
<path d="M16.5293 36.4842H16.0986V38.8955H16.5293V36.4842Z" fill="black"/>
<path fill-rule="evenodd" clip-rule="evenodd" d="M17.4275 38.4161C17.4275 38.1621 17.7139 38.13 17.9071 38.13H18.0932C18.0932 38.2587 18.0742 38.378 18.0037 38.471C17.9357 38.5616 17.8331 38.6189 17.7019 38.6189C17.5468 38.6189 17.4275 38.558 17.4275 38.4161ZM17.2092 37.6959C17.3536 37.5861 17.5373 37.5158 17.721 37.5158C17.9751 37.5158 18.0944 37.6064 18.0944 37.8736H17.8558C17.6757 37.8736 17.4633 37.8891 17.2999 37.9701C17.1364 38.05 17.0171 38.1955 17.0171 38.4424C17.0171 38.7572 17.3035 38.9337 17.5957 38.9337C17.7914 38.9337 18.0073 38.8312 18.1075 38.6475H18.1135C18.117 38.6987 18.117 38.8085 18.1326 38.8955H18.5119C18.5024 38.7667 18.4964 38.6511 18.4929 38.5258C18.4893 38.403 18.4869 38.279 18.4869 38.1109V37.8986C18.4869 37.4096 18.2781 37.201 17.7735 37.201C17.5897 37.201 17.3654 37.2486 17.1984 37.3262L17.2092 37.6959Z" fill="black"/>
<path d="M20.0629 37.2618C19.9281 37.2331 19.7957 37.201 19.5929 37.201C19.2552 37.201 18.9426 37.3584 18.9426 37.715C18.9426 38.3124 19.6918 38.0906 19.6918 38.4161C19.6918 38.5771 19.5189 38.6189 19.4091 38.6189C19.2612 38.6189 19.1204 38.5771 18.9844 38.5103L18.9593 38.8646C19.1168 38.9063 19.2839 38.9349 19.4485 38.9349C19.7993 38.9349 20.1428 38.7811 20.1428 38.3947C20.1428 37.7972 19.3936 37.9641 19.3936 37.7006C19.3936 37.5587 19.532 37.517 19.6478 37.517C19.8052 37.517 19.9018 37.542 20.033 37.5873L20.0629 37.2618Z" fill="black"/>
<path d="M21.6296 37.2618C21.4948 37.2331 21.3623 37.201 21.1595 37.201C20.8219 37.201 20.5105 37.3584 20.5105 37.715C20.5105 38.3124 21.2597 38.0906 21.2597 38.4161C21.2597 38.5771 21.0867 38.6189 20.9769 38.6189C20.829 38.6189 20.6883 38.5771 20.5523 38.5103L20.526 38.8646C20.6835 38.9063 20.8505 38.9349 21.0151 38.9349C21.3659 38.9349 21.7094 38.7811 21.7094 38.3947C21.7094 37.7972 20.9603 37.9641 20.9603 37.7006C20.9603 37.5587 21.0987 37.517 21.2144 37.517C21.3718 37.517 21.4685 37.542 21.5997 37.5873L21.6296 37.2618Z" fill="black"/>
<path fill-rule="evenodd" clip-rule="evenodd" d="M23.0007 38.8955H23.4672L23.6628 38.3815H24.5732L24.7664 38.8955H25.2651L24.3847 36.6512H23.8764L23.0007 38.8955ZM24.4479 38.0274H23.7917L24.1162 37.102H24.1222L24.4479 38.0274Z" fill="black"/>
<path d="M25.8127 38.8954H26.2434V37.555H26.6192V37.2402H26.2434V37.0339C26.2434 36.9051 26.2886 36.7799 26.4331 36.7799C26.5261 36.7799 26.581 36.8156 26.6192 36.8371L26.6549 36.4829C26.5714 36.4603 26.4485 36.4448 26.34 36.4448C25.9988 36.4448 25.8127 36.6761 25.8127 37.0076V37.239H25.4941V37.5538H25.8127V38.8954Z" fill="black"/>
<path d="M27.0547 38.8955H27.4854V38.2886C27.4854 38.0512 27.4854 37.6136 27.8361 37.6136C27.9137 37.6136 27.9912 37.6267 28.0294 37.6481V37.2141C27.984 37.201 27.9388 37.201 27.8982 37.201C27.6405 37.201 27.4639 37.4609 27.4448 37.6159H27.4388V37.2403H27.0559V38.8955H27.0547Z" fill="black"/>
<path fill-rule="evenodd" clip-rule="evenodd" d="M28.4446 36.9373H28.8752V36.5259H28.4446V36.9373ZM28.4446 38.8955H28.8752V37.2402H28.4446V38.8955Z" fill="black"/>
<path d="M30.5804 37.2558C30.4611 37.22 30.3358 37.201 30.1628 37.201C29.6451 37.201 29.3623 37.5801 29.3623 38.0596C29.3623 38.564 29.6355 38.9337 30.1796 38.9337C30.3561 38.9337 30.4849 38.917 30.6103 38.8788L30.5912 38.5223C30.5172 38.5545 30.3824 38.5998 30.2595 38.5998C29.9576 38.5998 29.8121 38.3649 29.8121 38.0596C29.8121 37.7484 29.9827 37.5361 30.25 37.5361C30.3812 37.5361 30.4646 37.5623 30.5422 37.5968L30.5804 37.2558Z" fill="black"/>
<path fill-rule="evenodd" clip-rule="evenodd" d="M31.3399 38.4161C31.3399 38.1621 31.6262 38.13 31.8194 38.13H32.0056C32.0056 38.2587 31.9865 38.378 31.9161 38.471C31.8481 38.5616 31.7455 38.6189 31.613 38.6189C31.4592 38.6189 31.3399 38.558 31.3399 38.4161ZM31.1215 37.6959C31.2659 37.5861 31.4496 37.5158 31.6333 37.5158C31.8875 37.5158 32.0068 37.6064 32.0068 37.8736H31.7693C31.5892 37.8736 31.3768 37.8891 31.2134 37.9701C31.0487 38.05 30.9307 38.1955 30.9307 38.4424C30.9307 38.7572 31.217 38.9337 31.5093 38.9337C31.7049 38.9337 31.9208 38.8312 32.0211 38.6475H32.0247C32.0282 38.6987 32.0282 38.8085 32.0438 38.8955H32.4231C32.4136 38.7667 32.4076 38.6511 32.404 38.5258C32.4005 38.403 32.3969 38.279 32.3969 38.1109V37.8986C32.3969 37.4096 32.1881 37.201 31.6835 37.201C31.4997 37.201 31.2754 37.2486 31.1072 37.3262L31.1215 37.6959Z" fill="black"/>
<path d="M32.9624 38.8955H33.3931V38.0858C33.3931 37.8736 33.4611 37.5361 33.7725 37.5361C34.0492 37.5361 34.0516 37.8091 34.0516 38.0119V38.8955H34.4823V37.8509C34.4823 37.4776 34.3117 37.201 33.9192 37.201C33.6937 37.201 33.5112 37.2749 33.3764 37.4645H33.3704V37.2391H32.9624V38.8955Z" fill="black"/>
<path d="M37.1897 37.2558C37.0704 37.22 36.9451 37.201 36.7721 37.201C36.2544 37.201 35.9717 37.5801 35.9717 38.0596C35.9717 38.564 36.2448 38.9337 36.7889 38.9337C36.9654 38.9337 37.0943 38.917 37.2196 38.8788L37.2005 38.5223C37.1265 38.5545 36.9917 38.5998 36.8688 38.5998C36.567 38.5998 36.4214 38.3649 36.4214 38.0596C36.4214 37.7484 36.592 37.5361 36.8593 37.5361C36.9905 37.5361 37.0752 37.5623 37.1515 37.5968L37.1897 37.2558Z" fill="black"/>
<path fill-rule="evenodd" clip-rule="evenodd" d="M37.6536 36.9373H38.0843V36.5259H37.6536V36.9373ZM37.6536 38.8955H38.0843V37.2402H37.6536V38.8955Z" fill="black"/>
<path d="M38.819 38.397C38.819 38.725 39.0051 38.9337 39.3427 38.9337C39.4716 38.9337 39.5706 38.9206 39.6612 38.8955L39.6481 38.5545C39.6028 38.5831 39.5288 38.5997 39.4525 38.5997C39.289 38.5997 39.2496 38.4686 39.2496 38.3267V37.5551H39.6326V37.2403H39.2496V36.7716L38.819 36.91V37.2415H38.5005V37.5563H38.819V38.397Z" fill="black"/>
<path d="M40.3569 37.2404H39.8809L40.5144 38.9791C40.5144 39.1556 40.4082 39.2748 40.2352 39.2748C40.129 39.2748 40.0682 39.2653 40.0133 39.2462L39.9847 39.5646C40.0849 39.5932 40.1875 39.6099 40.2901 39.6099C40.7399 39.6099 40.8401 39.2498 40.9784 38.8837L41.5988 37.2415H41.161L40.7625 38.4508H40.7566L40.3569 37.2404Z" fill="black"/>
<path d="M34.2581 17.9309C33.893 17.9309 33.5947 18.0596 33.3645 18.3149C33.1331 18.5712 33.0174 18.8825 33.0174 19.2486C33.0174 19.6589 33.1283 19.9987 33.3526 20.2682C33.5756 20.5377 33.8775 20.6725 34.2581 20.6725C34.6315 20.6725 34.9226 20.5413 35.1337 20.2789C35.3437 20.0178 35.4499 19.6743 35.4499 19.2486C35.4499 18.8825 35.3354 18.5712 35.1087 18.3149C34.8808 18.0596 34.5981 17.9309 34.2581 17.9309ZM33.1927 21.2723C32.3612 20.8776 31.9436 20.2062 31.9436 19.2439C31.9436 18.6261 32.1584 18.1121 32.5903 17.7007C33.0209 17.2893 33.5554 17.0818 34.1889 17.0818C34.7711 17.0818 35.2852 17.1963 35.6312 17.4372C35.7935 17.5504 35.9891 17.7377 36.1359 17.9297C36.4031 18.2803 36.5391 18.7347 36.5391 19.2963C36.5391 19.8926 36.3363 20.3768 35.9796 20.7953C35.5645 21.2855 34.2915 21.7947 33.1927 21.2723Z" fill="black"/>
<path d="M32.6581 25.2519H34.5561C34.9284 25.2519 35.2207 25.1338 35.4307 24.8977C35.6406 24.6616 35.7456 24.3515 35.7456 23.9675C35.7456 23.636 35.6323 23.3546 35.4044 23.1244C35.1777 22.8931 34.895 22.7762 34.555 22.7762H33.7091L34.0837 21.8878H34.4846C35.0668 21.8878 35.581 21.9975 35.927 22.2288C36.0892 22.3373 36.2825 22.5174 36.4316 22.7022C36.6988 23.0385 36.8348 23.475 36.8348 24.014C36.8348 24.5853 36.632 25.0503 36.2765 25.4522C35.9914 25.7742 35.303 26.1046 34.5454 26.1189H32.2966L32.6581 25.2519Z" fill="black"/>
<path d="M28.2165 20.6653C28.2165 17.6125 30.1551 17.294 30.8877 17.294C31.069 17.294 31.3327 17.3274 31.6739 17.3907L31.2503 18.3877C31.0285 18.2338 30.8054 18.1575 30.5811 18.1575C30.2196 18.1575 29.9047 18.3232 29.635 18.6559C29.3654 18.9862 29.2306 19.387 29.2306 19.8545V23.1363H28.2153V20.6653H28.2165Z" fill="black"/>
<path d="M6.27133 15.8653H5.8335V16.7335H7.68507V23.8493C7.68507 24.3335 7.55498 24.6829 7.29731 24.8952C7.03843 25.1074 6.56004 25.2136 5.86093 25.2136V26.1187C6.01363 26.1187 6.15679 26.1187 6.29877 26.1128C7.2663 26.1128 7.97971 25.9279 8.44383 25.557C8.90669 25.185 9.13815 24.6054 9.13815 23.8171V15.8641H6.27133V15.8653Z" fill="black"/>
<path d="M9.86914 20.2563C9.86914 19.381 10.122 18.6691 10.629 18.1181C11.1349 17.5684 11.8018 17.294 12.631 17.294C13.5019 17.294 14.1795 17.5588 14.6627 18.0871C15.1458 18.6154 15.3868 19.338 15.3868 20.2563C15.3868 21.1698 15.141 21.8972 14.6484 22.4374C14.158 22.9765 13.4851 23.246 12.631 23.246C11.7588 23.246 11.08 22.9753 10.5969 22.4303C10.1125 21.8853 9.86914 21.1602 9.86914 20.2563ZM11.2697 20.2563C11.2697 21.518 11.7231 22.1477 12.631 22.1477C13.0473 22.1477 13.3778 21.9831 13.6211 21.6564C13.8645 21.3284 13.9874 20.8609 13.9874 20.2563C13.9874 19.0125 13.5353 18.3912 12.631 18.3912C12.2146 18.3912 11.8829 18.5546 11.6384 18.8825C11.3926 19.2105 11.2697 19.6684 11.2697 20.2563Z" fill="black"/>
<path d="M19.9064 17.2129C18.6633 17.034 17.425 18.4949 17.1386 20.4769C17.1088 20.682 17.0933 20.8848 17.085 21.0827C17.0933 20.9885 17.1041 20.8931 17.1184 20.7965C17.3498 19.1926 18.3484 18.0084 19.3481 18.1526C20.349 18.297 20.8369 19.542 20.6044 21.1459C20.3741 22.751 19.5103 24.1081 18.5106 23.9639C18.0346 23.8947 17.6457 23.5357 17.3927 23.0086C17.7017 23.7695 18.2219 24.2954 18.8709 24.3884C20.114 24.5673 21.3536 23.1064 21.6387 21.1244C21.925 19.1448 21.1496 17.393 19.9064 17.2129Z" fill="black"/>
<path d="M17.7871 12.4058L17.7728 12.4023L17.7752 12.4333C17.7752 12.7946 17.094 12.8793 16.1897 12.8793C15.7352 12.8793 15.2567 12.828 14.943 12.7385L14.9275 12.7338L14.9299 12.7505C14.9609 13.0045 15.691 13.2025 16.5929 13.2025C17.5259 13.2025 18.2572 12.9973 18.2572 12.7338C18.2548 12.6098 18.089 12.4941 17.7871 12.4058Z" fill="black"/>
<path d="M25.6703 22.9633C25.3339 23.1672 24.9867 23.2459 24.6586 23.2459C24.0287 23.2459 23.5467 23.0658 23.2115 22.7057C22.8775 22.3467 22.7104 21.8328 22.7104 21.1685V17.4025H23.7257V21.0552C23.7257 21.9389 24.111 22.3813 24.8817 22.3813C25.7442 22.3813 26.3611 21.7684 26.3611 21.0004V17.4025H27.3763V19.1495C27.3751 21.5728 26.4386 22.4994 25.6703 22.9633Z" fill="black"/>
<path fill-rule="evenodd" clip-rule="evenodd" d="M16.668 9.1955L16.8087 12.2174H16.5283L16.668 9.1955Z" fill="black"/>
<path d="M15.9773 13.5638L16.668 21.0731L17.36 13.5638C17.131 13.5936 16.8959 13.6079 16.668 13.6079C16.4414 13.6067 16.2064 13.5924 15.9773 13.5638Z" fill="black"/>
<path d="M42.1654 31.6545H0.409912V10.5348L0.568582 10.4489C13.2384 3.57639 27.0988 0.0608182 41.7633 0.00119187L42.1642 0V31.6545H42.1654ZM1.20923 30.8542H41.3661V0.800189C27.0642 0.921825 13.557 4.35512 1.21043 11.0094V30.8542H1.20923Z" fill="black"/>
<path d="M17.4603 22.0737C17.4603 22.5114 17.1048 22.8655 16.6682 22.8655C16.2303 22.8655 15.876 22.5114 15.876 22.0737C15.876 21.6373 16.2303 21.2819 16.6682 21.2819C17.1048 21.2819 17.4603 21.6373 17.4603 22.0737Z" fill="#FCB614"/>
</g>
<defs>
<clipPath id="clip0_1_3037">
<rect width="172" height="40" fill="white" transform="translate(0.409912)"/>
</clipPath>
</defs>
</svg>
