<svg width="130" height="30" viewBox="0 0 130 30" fill="none" xmlns="http://www.w3.org/2000/svg">
<path d="M45.5437 21.8906C45.5437 22.4543 46.0087 22.9667 46.6285 22.9667C47.2484 22.9667 47.7133 22.5055 47.7133 21.8906C47.7133 21.2756 47.2484 20.8144 46.6285 20.8144C46.0087 20.8144 45.5437 21.3268 45.5437 21.8906ZM43.7358 19.3283L44.614 20.0969C46.6802 18.2008 48.7464 20.0969 48.7464 20.0969C48.7464 20.0969 49.4695 19.3283 49.5212 19.3283C49.4695 19.2257 48.5397 18.0983 46.6285 18.0983C44.7173 18.0983 43.7358 19.3283 43.7358 19.3283ZM44.7689 10.0526H48.4364V8.15652H44.7689V10.0526ZM44.7689 7.95152H48.4364V7.74652H46.7835V4.62048H46.4735V7.74652H44.7689V7.95152ZM51.6391 17.2784C51.6391 17.2784 50.0894 15.3823 47.0934 15.2285V13.3324H47.5066V10.3088H45.6471V13.3324H46.0603V15.2285C43.116 15.4335 41.5146 17.2784 41.5146 17.2784L42.4444 18.0983C46.6285 14.1524 50.8126 18.0983 50.8126 18.0983L51.6391 17.2784Z" fill="white"/>
<path d="M117.448 13.0762V18.3546C117.448 18.4059 117.499 18.4571 117.551 18.4571H118.791C118.842 18.4571 118.894 18.4059 118.894 18.3546V13.0762H117.448ZM113.47 18.6621L116.518 10.8213C116.57 10.7701 116.518 10.7189 116.415 10.7189H115.072C115.02 10.7189 114.968 10.7189 114.968 10.7701L113.419 14.9723L111.818 10.7701C111.818 10.7189 111.766 10.7189 111.714 10.7189H110.371C110.32 10.7189 110.268 10.7189 110.268 10.7701L108.666 14.9723L107.117 10.7701C107.117 10.7189 107.065 10.7189 107.013 10.7189H105.67C105.619 10.7189 105.515 10.7701 105.567 10.8213L108.615 18.6621C108.615 18.7646 108.77 18.7646 108.821 18.6621L111.094 12.7175L113.367 18.6621C113.315 18.7646 113.47 18.7646 113.47 18.6621ZM118.894 12.0513V10.8213C118.894 10.7701 118.842 10.7189 118.791 10.7189H117.551C117.499 10.7189 117.448 10.7701 117.448 10.8213V12.0513H118.894ZM125.816 12.0513V10.7701C125.816 10.7189 125.764 10.6676 125.713 10.6676H120.651C120.599 10.6676 120.547 10.7189 120.547 10.7701V18.3033C120.547 18.3546 120.599 18.4059 120.651 18.4059H121.942C121.994 18.4059 122.045 18.3546 122.045 18.3033V15.2285H125.093C125.144 15.2285 125.196 15.1773 125.196 15.1261V13.8961C125.196 13.8449 125.144 13.7937 125.093 13.7937H122.045V12.0513H125.713C125.816 12.1538 125.816 12.1025 125.816 12.0513ZM127.004 12.0513H128.502V10.8213C128.502 10.7701 128.45 10.7189 128.399 10.7189H127.107C127.056 10.7189 127.004 10.7701 127.004 10.8213V12.0513ZM128.502 18.3546V13.0762H127.004V18.3546C127.004 18.4059 127.056 18.4571 127.107 18.4571H128.347C128.45 18.4571 128.502 18.4059 128.502 18.3546Z" fill="white"/>
<path d="M75.1422 18.5083C75.1422 18.5596 75.1936 18.6108 75.2456 18.6108H76.4851C76.5371 18.6108 76.5886 18.5596 76.5886 18.5083V10.9751C76.5886 10.9238 76.5371 10.8726 76.4851 10.8726H75.2456C75.1936 10.8726 75.1422 10.9238 75.1422 10.9751V18.5083ZM74.0056 18.6108C74.0576 18.6108 74.1091 18.5596 74.1091 18.5083V17.2784C74.1091 17.2272 74.0576 17.1759 74.0056 17.1759H70.2865L74.0576 11.0263C74.1091 10.9751 74.0576 10.8726 73.9541 10.8726H68.2203C68.1688 10.8726 68.1168 10.9238 68.1168 10.9751V12.205C68.1168 12.2562 68.1688 12.3075 68.2203 12.3075H71.578L67.807 18.4571C67.7555 18.5083 67.807 18.6108 67.9104 18.6108H74.0056ZM63.3647 17.2784C61.8153 17.2784 61.0401 15.9972 61.0401 14.7161C61.0401 13.4349 61.8153 12.1538 63.3647 12.1538C64.9146 12.1538 65.6893 13.4349 65.6893 14.7161C65.6893 15.9972 64.9146 17.2784 63.3647 17.2784ZM63.3647 10.7701C60.7822 10.7701 59.4907 12.7687 59.4907 14.7161C59.4907 16.7147 60.7822 18.7133 63.3647 18.7133C65.8957 18.7133 67.1872 16.7147 67.1872 14.7161C67.1872 12.7687 65.8957 10.7701 63.3647 10.7701ZM55.4097 10.8726C55.3583 10.8726 55.3068 10.9238 55.3068 10.9751V12.1025C55.3068 12.1538 55.3583 12.205 55.4097 12.205H56.7013V16.356C56.7013 16.356 56.7013 17.2272 55.8231 17.2272H54.8415C54.79 17.2272 54.7385 17.2784 54.7385 17.3297V18.6108C54.7385 18.6621 54.79 18.7133 54.8415 18.7133H55.8231C55.8231 18.7133 58.1477 18.7133 58.1477 16.4072V10.9238C58.1477 10.8726 58.0962 10.8213 58.0442 10.8213H55.4097V10.8726Z" fill="white"/>
<path d="M101.021 12.8199C101.073 12.8199 101.124 12.7687 101.124 12.7687V11.795C101.124 11.7437 101.073 11.7437 101.021 11.7437H97.0436C96.9921 11.7437 96.9406 11.795 96.9406 11.795V17.6883C96.9406 17.7396 96.9921 17.7396 97.0436 17.7396H101.021C101.073 17.7396 101.124 17.6883 101.124 17.6883V16.7146C101.124 16.6634 101.073 16.6634 101.021 16.6634H98.1287V15.2797H100.505C100.556 15.2797 100.608 15.2285 100.608 15.2285V14.306C100.608 14.2548 100.556 14.2548 100.505 14.2548H98.1287V12.8711L101.021 12.8199ZM95.8555 12.8199C95.9075 12.8199 95.959 12.7687 95.959 12.7687V11.795C95.959 11.7437 95.9075 11.7437 95.8555 11.7437H91.8781C91.8266 11.7437 91.7751 11.795 91.7751 11.795V17.6883C91.7751 17.7396 91.8266 17.7396 91.8781 17.7396H95.8555C95.9075 17.7396 95.959 17.6883 95.959 17.6883V16.7146C95.959 16.6634 95.9075 16.6634 95.8555 16.6634H92.9632V15.2797H95.3392C95.3907 15.2797 95.4427 15.2285 95.4427 15.2285V14.306C95.4427 14.2548 95.3907 14.2548 95.3392 14.2548H92.9632V12.8711L95.8555 12.8199ZM87.6942 12.8199H88.5723C88.7787 12.8199 89.502 12.8711 89.502 13.5373C89.502 14.2036 88.8307 14.2548 88.5723 14.2548H87.6942V12.8199ZM89.4505 17.7396C89.4505 17.7396 89.502 17.7908 89.554 17.7908H90.6385C90.69 17.7908 90.742 17.7396 90.69 17.6883C90.3287 16.8171 89.9153 15.9972 89.502 15.1772C90.1223 14.9722 90.6385 14.4598 90.6385 13.5373C90.6385 11.7437 88.9342 11.7437 88.5723 11.7437H86.6096C86.5576 11.7437 86.5061 11.795 86.5061 11.795V17.6883C86.5061 17.7396 86.5576 17.7396 86.6096 17.7396H87.5907C87.6427 17.7396 87.6942 17.6883 87.6942 17.6883V15.331H88.3659L89.4505 17.7396ZM85.5245 12.8711C85.5765 12.8711 85.628 12.8199 85.628 12.8199V11.8462C85.628 11.795 85.5765 11.795 85.5245 11.795H81.547C81.4956 11.795 81.4441 11.8462 81.4441 11.8462V17.6883C81.4441 17.7396 81.4956 17.7396 81.547 17.7396H82.5287C82.5801 17.7396 82.6321 17.6883 82.6321 17.6883V15.331H85.0082C85.0597 15.331 85.1117 15.2797 85.1117 15.2797V14.306C85.1117 14.2548 85.0597 14.2548 85.0082 14.2548H82.6321V12.9224L85.5245 12.8711Z" fill="white"/>
<path fill-rule="evenodd" clip-rule="evenodd" d="M80.2042 10.0526C79.6365 10.0526 79.1711 10.5138 79.1711 11.0775V18.4058C79.1711 18.9695 79.6365 19.4307 80.2042 19.4307H102.313C102.881 19.4307 103.346 18.9695 103.346 18.4058V11.0775C103.346 10.5138 102.881 10.0526 102.313 10.0526H80.2042ZM80.5147 10.8213C80.2042 10.8213 79.9464 11.0775 79.9464 11.385V18.047C79.9464 18.3546 80.2042 18.6108 80.5147 18.6108H101.951C102.261 18.6108 102.52 18.3546 102.52 18.047V11.385C102.52 11.0775 102.261 10.8213 101.951 10.8213H80.5147Z" fill="white"/>
<path fill-rule="evenodd" clip-rule="evenodd" d="M0.634159 28.8121C0.634159 28.6216 0.850564 28.5975 0.996641 28.5975H1.13731C1.13731 28.694 1.12288 28.7835 1.06967 28.8533C1.01828 28.9212 0.940736 28.9641 0.841549 28.9641C0.724331 28.9641 0.634159 28.9185 0.634159 28.8121ZM0.469149 28.2719C0.578254 28.1896 0.717115 28.1368 0.855976 28.1368C1.04804 28.1368 1.13821 28.2048 1.13821 28.4051H0.95787C0.821709 28.4051 0.66121 28.4168 0.537678 28.4776C0.414146 28.5375 0.323975 28.6466 0.323975 28.8318C0.323975 29.0679 0.540384 29.2003 0.761299 29.2003C0.909175 29.2003 1.07238 29.1234 1.14813 28.9856H1.15264C1.15534 29.024 1.15534 29.1064 1.16706 29.1716H1.4538C1.44658 29.075 1.44208 28.9883 1.43937 28.8944C1.43667 28.8023 1.43486 28.7093 1.43486 28.5831V28.4239C1.43486 28.0572 1.27707 27.9007 0.89565 27.9007C0.756789 27.9007 0.587269 27.9365 0.461031 27.9946L0.469149 28.2719Z" fill="white"/>
<path d="M2.9063 29.1717H3.27779L3.5456 28.2263H3.55011L3.82243 29.1717H4.20655L4.59067 27.9303H4.27958L4.019 28.8488H4.01449L3.74217 27.9303H3.36255L3.11008 28.8488H3.10557L2.82785 27.9303H2.4834L2.9063 29.1717Z" fill="white"/>
<path fill-rule="evenodd" clip-rule="evenodd" d="M5.14975 28.5205C5.14975 28.3345 5.25164 28.152 5.46352 28.152C5.67725 28.152 5.77913 28.33 5.77913 28.5205C5.77913 28.728 5.71333 28.9498 5.46352 28.9498C5.21558 28.9498 5.14975 28.7254 5.14975 28.5205ZM4.80981 28.559C4.80981 28.9158 5.05057 29.2003 5.46352 29.2003C5.87925 29.2003 6.11999 28.9158 6.11999 28.559C6.11999 28.1494 5.83595 27.9007 5.46352 27.9007C5.09385 27.9007 4.80981 28.1494 4.80981 28.559Z" fill="white"/>
<path d="M6.48779 29.1716H6.81327V28.7164C6.81327 28.5384 6.81327 28.2101 7.07836 28.2101C7.137 28.2101 7.19467 28.22 7.22444 28.2361V27.9106C7.19016 27.9007 7.15684 27.9007 7.12437 27.9007C6.92958 27.9007 6.79613 28.0957 6.7817 28.2119H6.77719V27.9302H6.48779V29.1716Z" fill="white"/>
<path d="M7.86386 27.3632H7.53833V29.1716H7.86386V27.3632Z" fill="white"/>
<path fill-rule="evenodd" clip-rule="evenodd" d="M9.14533 29.1716H9.46094V27.3632H9.13541V28.0742H9.1309C9.03353 27.9562 8.91902 27.9007 8.75671 27.9007C8.3726 27.9007 8.23193 28.2048 8.23193 28.5464C8.23193 28.8863 8.3726 29.1994 8.75671 29.1994C8.91 29.1994 9.04345 29.1511 9.14082 29.0303H9.14533V29.1716ZM8.57184 28.5473C8.57184 28.381 8.63048 28.152 8.84145 28.152C9.05067 28.152 9.1336 28.3738 9.1336 28.5473C9.1336 28.7235 9.0633 28.9498 8.84686 28.9498C8.63228 28.9498 8.57184 28.7182 8.57184 28.5473Z" fill="white"/>
<path d="M11.5066 27.9418C11.4164 27.915 11.3217 27.9007 11.191 27.9007C10.7997 27.9007 10.5859 28.1851 10.5859 28.5447C10.5859 28.923 10.7925 29.2003 11.2036 29.2003C11.3371 29.2003 11.4344 29.1877 11.5291 29.1591L11.5147 28.8917C11.4588 28.9158 11.3569 28.9498 11.264 28.9498C11.0359 28.9498 10.9268 28.7736 10.9268 28.5447C10.9268 28.3113 11.0557 28.152 11.2568 28.152C11.356 28.152 11.42 28.1717 11.4777 28.1976L11.5066 27.9418Z" fill="white"/>
<path d="M12.1831 27.3632H11.8577V29.1716H12.1831V27.3632Z" fill="white"/>
<path fill-rule="evenodd" clip-rule="evenodd" d="M12.8622 28.8121C12.8622 28.6216 13.0786 28.5975 13.2247 28.5975H13.3653C13.3653 28.694 13.3509 28.7835 13.2977 28.8533C13.2463 28.9212 13.1688 28.9641 13.0696 28.9641C12.9524 28.9641 12.8622 28.9185 12.8622 28.8121ZM12.6972 28.2719C12.8063 28.1896 12.9452 28.1368 13.084 28.1368C13.2761 28.1368 13.3662 28.2048 13.3662 28.4051H13.1859C13.0498 28.4051 12.8893 28.4168 12.7657 28.4776C12.6422 28.5375 12.552 28.6466 12.552 28.8318C12.552 29.0679 12.7684 29.2003 12.9893 29.2003C13.1372 29.2003 13.3004 29.1234 13.3761 28.9856H13.3807C13.3834 29.024 13.3834 29.1064 13.3951 29.1716H13.6818C13.6746 29.075 13.6701 28.9883 13.6674 28.8944C13.6647 28.8023 13.6629 28.7093 13.6629 28.5831V28.4239C13.6629 28.0572 13.5051 27.9007 13.1237 27.9007C12.9848 27.9007 12.8153 27.9365 12.6891 27.9946L12.6972 28.2719Z" fill="white"/>
<path d="M14.854 27.9463C14.7521 27.9248 14.6521 27.9007 14.4988 27.9007C14.2436 27.9007 14.0073 28.0188 14.0073 28.2862C14.0073 28.7343 14.5736 28.5679 14.5736 28.8121C14.5736 28.9328 14.4429 28.9641 14.3599 28.9641C14.2481 28.9641 14.1417 28.9328 14.0389 28.8827L14.02 29.1484C14.139 29.1797 14.2653 29.2011 14.3897 29.2011C14.6548 29.2011 14.9145 29.0858 14.9145 28.796C14.9145 28.3479 14.3482 28.4731 14.3482 28.2755C14.3482 28.169 14.4528 28.1377 14.5403 28.1377C14.6593 28.1377 14.7323 28.1565 14.8315 28.1905L14.854 27.9463Z" fill="white"/>
<path d="M16.0382 27.9463C15.9363 27.9248 15.8362 27.9007 15.6829 27.9007C15.4277 27.9007 15.1924 28.0188 15.1924 28.2862C15.1924 28.7343 15.7587 28.5679 15.7587 28.8121C15.7587 28.9328 15.6279 28.9641 15.5449 28.9641C15.4331 28.9641 15.3267 28.9328 15.224 28.8827L15.2041 29.1484C15.3231 29.1797 15.4494 29.2011 15.5738 29.2011C15.8389 29.2011 16.0986 29.0858 16.0986 28.796C16.0986 28.3479 15.5323 28.4731 15.5323 28.2755C15.5323 28.169 15.6369 28.1377 15.7244 28.1377C15.8434 28.1377 15.9165 28.1565 16.0156 28.1905L16.0382 27.9463Z" fill="white"/>
<path fill-rule="evenodd" clip-rule="evenodd" d="M17.0745 29.1716H17.4271L17.5749 28.7862H18.2629L18.409 29.1716H18.7859L18.1205 27.4884H17.7363L17.0745 29.1716ZM18.1682 28.5205H17.6723L17.9176 27.8265H17.9221L18.1682 28.5205Z" fill="white"/>
<path d="M19.1997 29.1716H19.5253V28.1663H19.8093V27.9302H19.5253V27.7754C19.5253 27.6789 19.5595 27.585 19.6686 27.585C19.7389 27.585 19.7804 27.6117 19.8093 27.6279L19.8363 27.3622C19.7732 27.3452 19.6803 27.3336 19.5983 27.3336C19.3404 27.3336 19.1997 27.5071 19.1997 27.7557V27.9293H18.959V28.1654H19.1997V29.1716Z" fill="white"/>
<path d="M20.1384 29.1716H20.464V28.7164C20.464 28.5384 20.464 28.2101 20.7291 28.2101C20.7877 28.2101 20.8463 28.22 20.8751 28.2361V27.9106C20.8409 27.9007 20.8066 27.9007 20.776 27.9007C20.5812 27.9007 20.4477 28.0957 20.4333 28.2119H20.4288V27.9302H20.1393V29.1716H20.1384Z" fill="white"/>
<path fill-rule="evenodd" clip-rule="evenodd" d="M21.189 27.703H21.5144V27.3944H21.189V27.703ZM21.189 29.1716H21.5144V27.9301H21.189V29.1716Z" fill="white"/>
<path d="M22.8032 27.9418C22.713 27.915 22.6184 27.9007 22.4876 27.9007C22.0963 27.9007 21.8826 28.1851 21.8826 28.5447C21.8826 28.923 22.0891 29.2003 22.5003 29.2003C22.6337 29.2003 22.7311 29.1877 22.8258 29.1591L22.8114 28.8917C22.7554 28.9158 22.6535 28.9498 22.5607 28.9498C22.3325 28.9498 22.2225 28.7736 22.2225 28.5447C22.2225 28.3113 22.3515 28.152 22.5535 28.152C22.6526 28.152 22.7157 28.1717 22.7744 28.1976L22.8032 27.9418Z" fill="white"/>
<path fill-rule="evenodd" clip-rule="evenodd" d="M23.3774 28.8121C23.3774 28.6216 23.5938 28.5975 23.7399 28.5975H23.8805C23.8805 28.694 23.8661 28.7835 23.8129 28.8533C23.7615 28.9212 23.6839 28.9641 23.5839 28.9641C23.4676 28.9641 23.3774 28.9185 23.3774 28.8121ZM23.2124 28.2719C23.3215 28.1896 23.4603 28.1368 23.5992 28.1368C23.7913 28.1368 23.8814 28.2048 23.8814 28.4051H23.702C23.5658 28.4051 23.4053 28.4168 23.2818 28.4776C23.1574 28.5375 23.0681 28.6466 23.0681 28.8318C23.0681 29.0679 23.2845 29.2003 23.5054 29.2003C23.6533 29.2003 23.8165 29.1234 23.8923 28.9856H23.895C23.8977 29.024 23.8977 29.1064 23.9094 29.1716H24.1961C24.1889 29.075 24.1844 28.9883 24.1817 28.8944C24.179 28.8023 24.1763 28.7093 24.1763 28.5831V28.4239C24.1763 28.0572 24.0185 27.9007 23.6371 27.9007C23.4982 27.9007 23.3287 27.9365 23.2016 27.9946L23.2124 28.2719Z" fill="white"/>
<path d="M24.6038 29.1716H24.9293V28.5644C24.9293 28.4051 24.9807 28.152 25.216 28.152C25.4252 28.152 25.427 28.3568 25.427 28.5089V29.1716H25.7525V28.3881C25.7525 28.1082 25.6236 27.9007 25.3269 27.9007C25.1565 27.9007 25.0185 27.9561 24.9167 28.0984H24.9122V27.9293H24.6038V29.1716Z" fill="white"/>
<path d="M27.7988 27.9418C27.7086 27.915 27.6139 27.9007 27.4832 27.9007C27.0919 27.9007 26.8782 28.1851 26.8782 28.5447C26.8782 28.923 27.0846 29.2003 27.4958 29.2003C27.6293 29.2003 27.7267 29.1877 27.8213 29.1591L27.8069 28.8917C27.751 28.9158 27.6491 28.9498 27.5562 28.9498C27.3281 28.9498 27.2181 28.7736 27.2181 28.5447C27.2181 28.3113 27.347 28.152 27.549 28.152C27.6482 28.152 27.7122 28.1717 27.7699 28.1976L27.7988 27.9418Z" fill="white"/>
<path fill-rule="evenodd" clip-rule="evenodd" d="M28.1492 27.703H28.4747V27.3944H28.1492V27.703ZM28.1492 29.1716H28.4747V27.9301H28.1492V29.1716Z" fill="white"/>
<path d="M29.0303 28.7978C29.0303 29.0437 29.171 29.2003 29.4261 29.2003C29.5235 29.2003 29.5984 29.1904 29.6669 29.1716L29.6569 28.9158C29.6227 28.9373 29.5668 28.9498 29.5091 28.9498C29.3855 28.9498 29.3558 28.8514 29.3558 28.745V28.1663H29.6452V27.9302H29.3558V27.5787L29.0303 27.6825V27.9311H28.7896V28.1672H29.0303V28.7978Z" fill="white"/>
<path d="M30.1923 27.9303H29.8325L30.3113 29.2343C30.3113 29.3667 30.2311 29.4561 30.1003 29.4561C30.0201 29.4561 29.9741 29.449 29.9326 29.4346L29.911 29.6734C29.9867 29.6949 30.0643 29.7074 30.1418 29.7074C30.4818 29.7074 30.5575 29.4373 30.6621 29.1627L31.131 27.9312H30.8L30.4989 28.8381H30.4944L30.1923 27.9303Z" fill="white"/>
<path d="M25.5828 13.4481C25.3069 13.4481 25.0814 13.5447 24.9075 13.7361C24.7325 13.9284 24.6451 14.1619 24.6451 14.4364C24.6451 14.7441 24.7289 14.999 24.8984 15.2011C25.067 15.4033 25.2952 15.5043 25.5828 15.5043C25.8651 15.5043 26.085 15.406 26.2447 15.2092C26.4034 15.0133 26.4836 14.7557 26.4836 14.4364C26.4836 14.1619 26.397 13.9284 26.2257 13.7361C26.0535 13.5447 25.8398 13.4481 25.5828 13.4481ZM24.7776 15.9542C24.1491 15.6582 23.8335 15.1547 23.8335 14.4329C23.8335 13.9696 23.9958 13.5841 24.3222 13.2755C24.6477 12.9669 25.0517 12.8113 25.5305 12.8113C25.9705 12.8113 26.3592 12.8972 26.6206 13.0779C26.7433 13.1628 26.8912 13.3032 27.0021 13.4472C27.2041 13.7102 27.3068 14.051 27.3068 14.4722C27.3068 14.9194 27.1536 15.2826 26.8839 15.5964C26.5702 15.9641 25.6081 16.346 24.7776 15.9542Z" fill="white"/>
<path d="M24.3738 18.9389H25.8084C26.0897 18.9389 26.3106 18.8504 26.4693 18.6733C26.628 18.4962 26.7074 18.2636 26.7074 17.9756C26.7074 17.727 26.6217 17.5159 26.4495 17.3433C26.2782 17.1698 26.0645 17.0821 25.8075 17.0821H25.1682L25.4513 16.4158H25.7543C26.1943 16.4158 26.5829 16.4981 26.8444 16.6716C26.9671 16.753 27.1131 16.888 27.2258 17.0267C27.4278 17.2789 27.5306 17.6063 27.5306 18.0105C27.5306 18.4389 27.3773 18.7877 27.1086 19.0891C26.8931 19.3306 26.3728 19.5784 25.8002 19.5891H24.1006L24.3738 18.9389Z" fill="white"/>
<path d="M21.0168 15.499C21.0168 13.2094 22.482 12.9705 23.0356 12.9705C23.1727 12.9705 23.372 12.9956 23.6299 13.043L23.3098 13.7907C23.1421 13.6753 22.9735 13.6181 22.8039 13.6181C22.5307 13.6181 22.2927 13.7424 22.0889 13.9919C21.8851 14.2397 21.7832 14.5402 21.7832 14.8908V17.3522H21.0159V15.499H21.0168Z" fill="white"/>
<path d="M4.43029 11.899H4.09937V12.5502H5.49881V17.887C5.49881 18.2501 5.40048 18.5122 5.20574 18.6714C5.01007 18.8306 4.6485 18.9102 4.1201 18.9102V19.5891C4.23551 19.5891 4.34372 19.5891 4.45102 19.5846C5.1823 19.5846 5.72151 19.446 6.07229 19.1678C6.42213 18.8888 6.59707 18.4541 6.59707 17.8629V11.8981H4.43029V11.899Z" fill="white"/>
<path d="M7.14941 15.1922C7.14941 14.5357 7.34054 14.0018 7.72375 13.5886C8.10611 13.1763 8.61014 12.9705 9.23684 12.9705C9.89507 12.9705 10.4072 13.1691 10.7724 13.5653C11.1376 13.9615 11.3198 14.5035 11.3198 15.1922C11.3198 15.8773 11.134 16.4229 10.7616 16.828C10.391 17.2324 9.88244 17.4345 9.23684 17.4345C8.57766 17.4345 8.06461 17.2315 7.69945 16.8227C7.33332 16.4139 7.14941 15.8702 7.14941 15.1922ZM8.20799 15.1922C8.20799 16.1385 8.55066 16.6107 9.23684 16.6107C9.5515 16.6107 9.80131 16.4873 9.98522 16.2423C10.1692 15.9963 10.262 15.6457 10.262 15.1922C10.262 14.2594 9.92032 13.7934 9.23684 13.7934C8.92214 13.7934 8.67148 13.9159 8.48661 14.1619C8.30084 14.4078 8.20799 14.7513 8.20799 15.1922Z" fill="white"/>
<path d="M14.7357 12.9097C13.7962 12.7755 12.8602 13.8711 12.6438 15.3577C12.6213 15.5115 12.6096 15.6636 12.6033 15.812C12.6096 15.7414 12.6177 15.6698 12.6285 15.5974C12.8034 14.3944 13.5582 13.5063 14.3138 13.6145C15.0703 13.7227 15.4391 14.6565 15.2633 15.8594C15.0892 17.0633 14.4364 18.0811 13.6808 17.9729C13.321 17.921 13.0271 17.6518 12.8359 17.2565C13.0694 17.8271 13.4626 18.2215 13.9531 18.2913C14.8927 18.4255 15.8296 17.3298 16.045 15.8433C16.2614 14.3586 15.6754 13.0447 14.7357 12.9097Z" fill="white"/>
<path d="M13.134 9.30438L13.1232 9.3017L13.125 9.32496C13.125 9.59596 12.6101 9.65949 11.9266 9.65949C11.5831 9.65949 11.2215 9.62101 10.9844 9.55391L10.9727 9.55033L10.9745 9.56285C10.9979 9.75338 11.5498 9.90185 12.2314 9.90185C12.9366 9.90185 13.4893 9.74801 13.4893 9.55033C13.4875 9.45733 13.3622 9.37059 13.134 9.30438Z" fill="white"/>
<path d="M19.0923 17.2225C18.8381 17.3754 18.5756 17.4344 18.3277 17.4344C17.8516 17.4344 17.4873 17.2994 17.2339 17.0292C16.9815 16.76 16.8552 16.3746 16.8552 15.8764V13.0519H17.6225V15.7914C17.6225 16.4541 17.9138 16.786 18.4963 16.786C19.1482 16.786 19.6144 16.3262 19.6144 15.7502V13.0519H20.3817V14.3621C20.3808 16.1796 19.673 16.8745 19.0923 17.2225Z" fill="white"/>
<path fill-rule="evenodd" clip-rule="evenodd" d="M12.2879 6.89661L12.3943 9.16303H12.1824L12.2879 6.89661Z" fill="white"/>
<path d="M11.7659 10.1729L12.2879 15.8049L12.811 10.1729C12.6378 10.1952 12.4602 10.2059 12.2879 10.2059C12.1167 10.2051 11.939 10.1943 11.7659 10.1729Z" fill="white"/>
<path d="M31.5594 23.7408H0V7.90111L0.119925 7.83668C9.69593 2.68229 20.1719 0.0456137 31.2555 0.000893905L31.5585 0L31.5594 23.7408ZM0.604139 23.1407H30.9553V0.600142C20.1457 0.691368 9.93672 3.26634 0.605041 8.25705L0.604139 23.1407Z" fill="white"/>
<path d="M12.8869 16.5553C12.8869 16.8835 12.6182 17.1492 12.2882 17.1492C11.9573 17.1492 11.6895 16.8835 11.6895 16.5553C11.6895 16.228 11.9573 15.9614 12.2882 15.9614C12.6182 15.9614 12.8869 16.228 12.8869 16.5553Z" fill="#FCB614"/>
</svg>
